<svg xmlns="http://www.w3.org/2000/svg" fill="none" viewBox="0 0 407 407" xmlns:v="https://vecta.io/nano"><g stroke="#fff" stroke-width="2.168"><path d="M171.42 159.06h-61.043a12.1 12.1 0 0 0-10.442 5.987l-81.464 139.17c-9.02 15.409 2.093 34.79 19.948 34.79h32.227a12.1 12.1 0 0 0 10.441-5.987l96.021-164.04c2.572-4.394-.597-9.921-5.688-9.921z" fill="url(#A)"/><g fill="#95d1cc"><path d="M134.56 237.64l-.309.529.294.537 52.475 96.158a12.1 12.1 0 0 0 10.621 6.303h53.361c9.121 0 14.962-9.708 10.69-17.766l-83.399-157.31-.912-1.72-.982 1.68-41.839 71.588z" fill-opacity=".6"/><path d="M133.37 236.39l.818 2.077 1.126-1.928 41.157-70.48c1.708-2.926-.402-6.602-3.79-6.602h-63.189c-3.095 0-5.217 3.118-4.082 5.998l27.96 70.935z" fill-opacity=".6"/></g><path d="m313.19 119.73 47.967 28.057c3.116 1.822 4.186 5.812 2.401 8.949l-98.289 172.75c-4.109 7.222-11.78 11.683-20.089 11.683h-46.187c-9.307 0-15.129-10.068-10.486-18.134l115.64-200.9c1.825-3.171 5.883-4.249 9.041-2.402z" fill="#0093ab" fill-opacity=".6"/></g><path d="M365.55 70.996l-64.876 25.721c-5.025 1.992-5.568 8.889-.917 11.643l73.981 43.806c4.667 2.764 10.467-1.063 9.763-6.441l-9.105-69.527c-.551-4.201-4.907-6.763-8.846-5.202z" fill="url(#B)"/><defs><linearGradient id="A" x1="142" x2="41.192" y1="160.14" y2="337.92" gradientUnits="userSpaceOnUse"><stop stop-color="#22577e" offset="0"/><stop stop-color="#2b6fa1" offset=".983"/></linearGradient><linearGradient id="B" x1="384.82" x2="319.78" y1="130.87" y2="86.428" gradientUnits="userSpaceOnUse"><stop stop-color="#0093ab" stop-opacity=".6" offset="0"/><stop stop-color="#22577e" stop-opacity=".75" offset="1"/></linearGradient></defs></svg>